<?xml version="1.0" encoding="UTF-8"?>
<svg width="256" height="256" viewBox="0 0 256 256" fill="none" xmlns="http://www.w3.org/2000/svg">
  <defs>
    <linearGradient id="g0" x1="26" y1="18" x2="234" y2="240" gradientUnits="userSpaceOnUse">
      <stop stop-color="#111827"/>
      <stop offset="0.55" stop-color="#0B1220"/>
      <stop offset="1" stop-color="#020617"/>
    </linearGradient>

    <radialGradient id="shine" cx="0" cy="0" r="1" gradientUnits="userSpaceOnUse"
      gradientTransform="translate(70 44) rotate(55) scale(180)">
      <stop stop-color="#FFFFFF" stop-opacity="0.22"/>
      <stop offset="0.45" stop-color="#93C5FD" stop-opacity="0.12"/>
      <stop offset="1" stop-color="#10B981" stop-opacity="0"/>
    </radialGradient>

    <filter id="soft" x="-30%" y="-30%" width="160%" height="160%">
      <feDropShadow dx="0" dy="10" stdDeviation="10" flood-color="#0F172A" flood-opacity="0.35"/>
      <feDropShadow dx="0" dy="2" stdDeviation="2" flood-color="#FFFFFF" flood-opacity="0.10"/>
    </filter>
  </defs>

  <rect x="18" y="18" width="220" height="220" rx="56" fill="url(#g0)" filter="url(#soft)"/>
  <rect x="22" y="22" width="212" height="212" rx="52" fill="url(#shine)"/>

  <!-- Geometric C mark -->
  <path
    d="
      M176 48
      H112
      C85 48 64 69 64 96
      V160
      C64 187 85 208 112 208
      H176
      L160 176
      H112
      C101 176 96 171 96 160
      V96
      C96 85 101 80 112 80
      H160
      Z
    "
    fill="rgba(255,255,255,0.92)"
  />

  <rect x="24" y="24" width="208" height="208" rx="50"
        stroke="rgba(255,255,255,0.18)" stroke-width="2"/>
</svg>
